<svg width="292" height="100" viewBox="0 0 292 100" fill="none" xmlns="http://www.w3.org/2000/svg">
<path d="M58.0685 54.8146C57.7644 54.5756 57.6123 54.1846 57.6123 53.7066V1.52582C57.6123 1.06962 57.7644 0.722039 58.0685 0.483076C58.3726 0.244113 58.7854 0.11377 59.3285 0.11377H61.7833C62.1743 0.11377 62.5219 0.222389 62.826 0.439628C63.1302 0.656867 63.3257 0.939278 63.4126 1.28686L71.9066 30.0928C72.1022 30.549 72.3628 30.7662 72.6453 30.7662C72.9277 30.7662 73.1449 30.549 73.2318 30.0928L81.791 1.28686C81.9431 0.939278 82.1386 0.656867 82.3776 0.439628C82.6165 0.222389 83.0076 0.11377 83.4855 0.11377H85.723C86.1792 0.11377 86.5268 0.244113 86.8092 0.483076C87.0699 0.722039 87.222 1.06962 87.222 1.52582V53.7066C87.222 54.2063 87.0917 54.5756 86.8092 54.8146C86.5268 55.0753 86.1792 55.1839 85.723 55.1839H83.6375C83.1379 55.1839 82.7686 55.0535 82.5296 54.8146C82.2907 54.5756 82.1603 54.1846 82.1603 53.7066V21.9246C82.1603 21.6856 82.0734 21.4901 81.8996 21.3597C81.7258 21.2294 81.5303 21.186 81.3348 21.2077C81.1393 21.2294 80.9872 21.4032 80.8786 21.6856L74.9914 41.2588C74.8828 41.6499 74.6873 41.9757 74.4049 42.2364C74.1007 42.4754 73.6663 42.6057 73.058 42.6057H72.1673C71.6677 42.6057 71.2549 42.4754 70.9291 42.2364C70.6032 41.9975 70.3425 41.6716 70.147 41.2588L64.1946 21.6204C64.0426 21.2729 63.8036 21.1208 63.4778 21.1425C63.1519 21.1642 62.9998 21.4032 62.9998 21.8594V53.7066C62.9998 54.2063 62.8695 54.5756 62.5871 54.8146C62.3047 55.0753 61.9788 55.1839 61.5878 55.1839H59.285C58.7419 55.1839 58.3075 55.0535 58.0251 54.8146H58.0685Z" fill="white"/>
<path d="M91.0885 54.858C90.8061 54.6408 90.6758 54.3801 90.6758 54.076C90.6758 53.9239 90.7192 53.7718 90.8278 53.6198L99.4522 1.98203C99.5609 1.33031 99.7781 0.874106 100.169 0.569972C100.56 0.265837 101.06 0.11377 101.69 0.11377H104.601C105.187 0.11377 105.687 0.265837 106.056 0.569972C106.426 0.874106 106.686 1.33031 106.838 1.98203L115.398 53.5546C115.441 53.7066 115.463 53.8804 115.463 54.076C115.463 54.3801 115.332 54.6408 115.093 54.858C114.854 55.0753 114.529 55.1839 114.116 55.1839H112.03C111.531 55.1839 111.161 55.0753 110.922 54.8797C110.683 54.6842 110.531 54.3584 110.466 53.9022L108.598 42.7361C108.489 42.3885 108.381 42.1495 108.229 41.9975C108.077 41.8454 107.859 41.7802 107.555 41.7802H98.6267C98.3226 41.7802 98.0836 41.8454 97.8881 41.9975C97.6926 42.1495 97.5405 42.3885 97.4319 42.7361L95.5637 53.9022C95.5202 54.3584 95.3681 54.6625 95.1509 54.8797C94.9337 55.0753 94.5861 55.1839 94.1516 55.1839H92.0009C91.6534 55.1839 91.3492 55.0753 91.0668 54.858H91.0885ZM107.099 36.8923C107.316 36.7403 107.425 36.523 107.425 36.2189V35.8496L103.71 14.0388C103.667 13.8433 103.58 13.6695 103.493 13.5609C103.384 13.4305 103.254 13.3654 103.037 13.3654C102.928 13.3654 102.819 13.4305 102.711 13.5609C102.58 13.6912 102.494 13.8433 102.45 14.0388L98.7353 35.8496V36.2189C98.7353 36.4579 98.844 36.6751 99.0612 36.8489C99.2784 37.0227 99.5174 37.1096 99.7781 37.1096H106.404C106.643 37.1096 106.882 37.0444 107.121 36.8923H107.099Z" fill="white"/>
<path d="M119.265 54.8146C119.026 54.5756 118.896 54.228 118.896 53.7718V2.19926C118.896 1.5041 119.069 0.982726 119.417 0.635143C119.764 0.287561 120.264 0.11377 120.916 0.11377H132.668C134.45 0.11377 135.927 0.39618 137.057 0.961002C138.208 1.52582 139.055 2.37306 139.62 3.48098C140.185 4.58889 140.467 5.97922 140.467 7.60852V22.8587C140.467 24.3576 140.315 25.5959 140.011 26.6169C139.707 27.638 139.251 28.4852 138.643 29.1369C138.013 29.8103 137.23 30.2666 136.296 30.5055C136.101 30.6576 135.927 30.8096 135.775 30.9617C135.623 31.1138 135.558 31.3093 135.558 31.5483C135.601 31.5917 135.623 31.6352 135.623 31.6569C135.623 31.6786 135.601 31.7221 135.558 31.7655V31.8307L140.098 53.4894C140.098 53.4894 140.163 53.6415 140.141 53.6415C140.12 53.6415 140.141 53.6849 140.185 53.7935C140.185 53.837 140.185 53.8587 140.141 53.8587C140.098 53.8587 140.098 53.8804 140.098 53.9239C140.098 54.2715 139.989 54.5539 139.794 54.7711C139.598 54.9884 139.273 55.097 138.816 55.097H136.579C136.188 55.097 135.862 54.9884 135.601 54.7928C135.362 54.5973 135.188 54.2715 135.08 53.8153L130.54 32.1565C130.431 31.8089 130.301 31.57 130.127 31.4179C129.953 31.2659 129.757 31.2007 129.562 31.2007H124.956C124.652 31.2007 124.435 31.3093 124.283 31.5048C124.131 31.7003 124.066 31.961 124.066 32.2434V53.6849C124.066 54.1411 123.935 54.4887 123.696 54.7277C123.458 54.9884 123.11 55.097 122.654 55.097H120.264C119.808 55.097 119.46 54.9666 119.221 54.7277L119.265 54.8146ZM133.603 26.4866C134.167 26.2694 134.602 25.9 134.906 25.4004C135.21 24.9007 135.362 24.2708 135.362 23.467V8.45575C135.362 7.60852 135.21 6.91335 134.884 6.32681C134.558 5.76199 134.124 5.32751 133.537 5.06682C132.951 4.80613 132.277 4.65407 131.495 4.65407H125.174C124.826 4.65407 124.565 4.76269 124.392 4.97992C124.218 5.19716 124.131 5.47957 124.131 5.82716V25.6176C124.131 26.0087 124.218 26.3128 124.392 26.5083C124.565 26.7038 124.826 26.8125 125.174 26.8125H131.495C132.343 26.8125 133.038 26.7038 133.624 26.4866H133.603Z" fill="white"/>
<path d="M147.832 54.2934C146.637 53.7069 145.725 52.7945 145.116 51.6214C144.486 50.4266 144.182 48.8407 144.182 46.8639V8.23876C144.182 6.41395 144.465 4.87155 145.029 3.65502C145.594 2.43848 146.528 1.5478 147.788 0.982975C149.048 0.418153 150.634 0.135742 152.502 0.135742H157.499C159.324 0.135742 160.866 0.418153 162.104 0.982975C163.343 1.5478 164.255 2.43848 164.82 3.65502C165.385 4.87155 165.667 6.39223 165.667 8.23876V46.8639C165.667 48.7538 165.363 50.318 164.776 51.5562C164.19 52.7945 163.277 53.7069 162.104 54.3152C160.91 54.9017 159.389 55.2058 157.564 55.2058H152.285C150.504 55.2058 149.005 54.9017 147.81 54.3152L147.832 54.2934ZM159.519 49.6011C160.214 48.9059 160.562 47.8632 160.562 46.4728V8.9122C160.562 7.41325 160.258 6.32706 159.671 5.63189C159.085 4.93673 158.151 4.58914 156.912 4.58914H153.111C151.72 4.58914 150.721 4.95845 150.134 5.67534C149.548 6.39223 149.244 7.47842 149.244 8.9122V46.4946C149.244 47.9283 149.635 48.9928 150.395 49.6662C151.156 50.3397 152.111 50.6656 153.263 50.6656H157.064C157.999 50.6656 158.824 50.318 159.519 49.6228V49.6011ZM160.671 60.4196C160.388 60.2458 160.171 59.9851 159.954 59.6375L156.912 54.2717C156.673 53.8807 156.63 53.5114 156.804 53.1855C156.978 52.8597 157.303 52.6859 157.803 52.6207L159.519 52.4035C159.91 52.36 160.258 52.4035 160.562 52.5121C160.866 52.6424 161.083 52.9031 161.235 53.2941L164.429 58.9424C164.733 59.442 164.776 59.8548 164.581 60.1806C164.385 60.5065 164.038 60.6585 163.538 60.6585H161.67C161.279 60.6585 160.931 60.5717 160.671 60.3979V60.4196Z" fill="white"/>
<path d="M172.51 54.2932C171.293 53.7066 170.359 52.7725 169.686 51.5343C169.012 50.296 168.687 48.6884 168.687 46.6898V1.52582C168.687 1.13479 168.817 0.787211 169.056 0.526524C169.295 0.265837 169.642 0.11377 170.099 0.11377H172.336C172.792 0.11377 173.14 0.244113 173.379 0.526524C173.618 0.808935 173.748 1.13479 173.748 1.52582V46.1902C173.748 47.7326 174.096 48.8622 174.791 49.5791C175.486 50.296 176.507 50.6653 177.832 50.6653H181.265C182.612 50.6653 183.589 50.3177 184.241 49.6226C184.893 48.9274 185.218 47.7977 185.218 46.1902V1.52582C185.218 1.13479 185.349 0.787211 185.631 0.526524C185.914 0.244113 186.261 0.11377 186.717 0.11377H188.868C189.324 0.11377 189.672 0.244113 189.911 0.526524C190.15 0.808935 190.28 1.13479 190.28 1.52582V46.6247C190.28 48.6015 189.976 50.2308 189.346 51.4691C188.716 52.7073 187.804 53.6415 186.587 54.2497C185.37 54.8797 183.85 55.1839 182.003 55.1839H177.159C175.269 55.1839 173.726 54.8797 172.51 54.2932Z" fill="white"/>
<path d="M194.082 54.8583C193.799 54.641 193.669 54.3803 193.669 54.0762C193.669 53.9241 193.712 53.7721 193.821 53.62L202.445 1.96054C202.532 1.30882 202.771 0.852622 203.162 0.548487C203.532 0.244352 204.053 0.0922852 204.683 0.0922852H207.594C208.181 0.0922852 208.68 0.244352 209.049 0.548487C209.419 0.852622 209.679 1.30882 209.832 1.96054L218.391 53.5331C218.434 53.6852 218.456 53.859 218.456 54.0545C218.456 54.3586 218.326 54.6193 218.087 54.8365C217.848 55.0538 217.522 55.1624 217.109 55.1624H215.024C214.524 55.1624 214.155 55.0538 213.916 54.8583C213.677 54.6627 213.525 54.3369 213.459 53.8807L211.591 42.7146C211.483 42.367 211.374 42.128 211.222 41.976C211.07 41.8239 210.853 41.7587 210.548 41.7587H201.62C201.316 41.7587 201.077 41.8239 200.881 41.976C200.686 42.128 200.534 42.367 200.425 42.7146L198.557 53.8807C198.513 54.3369 198.361 54.641 198.144 54.8583C197.927 55.0538 197.579 55.1624 197.145 55.1624H194.994C194.647 55.1624 194.342 55.0538 194.06 54.8365L194.082 54.8583ZM210.092 36.8926C210.309 36.7405 210.418 36.5233 210.418 36.2191V35.8498L206.703 14.039C206.66 13.8435 206.573 13.6697 206.486 13.5611C206.377 13.4308 206.247 13.3656 206.03 13.3656C205.921 13.3656 205.813 13.4308 205.704 13.5611C205.595 13.6915 205.487 13.8435 205.443 14.039L201.729 35.8498V36.2191C201.729 36.4581 201.837 36.6753 202.054 36.8491C202.272 37.0229 202.511 37.1098 202.771 37.1098H209.397C209.636 37.1098 209.875 37.0447 210.114 36.8926H210.092Z" fill="white"/>
<path d="M222.257 54.8146C222.019 54.5756 221.888 54.228 221.888 53.7718V2.19926C221.888 1.5041 222.062 0.982726 222.41 0.635143C222.757 0.287561 223.257 0.11377 223.887 0.11377H235.639C237.421 0.11377 238.898 0.39618 240.028 0.961002C241.179 1.52582 242.026 2.37306 242.591 3.48098C243.156 4.58889 243.438 5.97922 243.438 7.60852V22.8587C243.438 24.3576 243.286 25.5959 242.982 26.6169C242.678 27.638 242.222 28.4852 241.613 29.1369C240.984 29.8103 240.201 30.2666 239.267 30.5055C239.072 30.6576 238.898 30.8096 238.746 30.9617C238.594 31.1138 238.529 31.3093 238.529 31.5483C238.572 31.5917 238.594 31.6352 238.594 31.6569C238.594 31.6786 238.572 31.7221 238.529 31.7655V31.8307L243.069 53.4894C243.069 53.4894 243.134 53.6415 243.112 53.6415C243.091 53.6415 243.112 53.6849 243.156 53.7935C243.156 53.837 243.156 53.8587 243.112 53.8587C243.091 53.8587 243.069 53.8804 243.069 53.9239C243.069 54.2715 242.96 54.5539 242.765 54.7711C242.569 54.9884 242.243 55.097 241.787 55.097H239.55C239.159 55.097 238.833 54.9884 238.572 54.7928C238.333 54.5973 238.159 54.2715 238.051 53.8153L233.51 32.1565C233.402 31.8089 233.272 31.57 233.098 31.4179C232.924 31.2659 232.728 31.2007 232.533 31.2007H227.927C227.623 31.2007 227.406 31.3093 227.254 31.5048C227.102 31.7003 227.037 31.961 227.037 32.2434V53.6849C227.037 54.1411 226.906 54.4887 226.667 54.7277C226.428 54.9884 226.081 55.097 225.625 55.097H223.235C222.779 55.097 222.431 54.9666 222.192 54.7277L222.257 54.8146ZM236.595 26.4866C237.16 26.2694 237.595 25.9 237.899 25.4004C238.203 24.9007 238.355 24.2708 238.355 23.467V8.45575C238.355 7.60852 238.203 6.91335 237.877 6.32681C237.551 5.76199 237.117 5.32751 236.53 5.06682C235.944 4.80613 235.27 4.65407 234.488 4.65407H228.166C227.819 4.65407 227.558 4.76269 227.384 4.97992C227.211 5.19716 227.124 5.47957 227.124 5.82716V25.6176C227.124 26.0087 227.211 26.3128 227.384 26.5083C227.558 26.7038 227.819 26.8125 228.166 26.8125H234.488C235.335 26.8125 236.03 26.7038 236.617 26.4866H236.595Z" fill="white"/>
<path d="M248.305 54.6408C247.957 54.2715 247.783 53.7501 247.783 53.1201V2.19926C247.783 1.5041 247.957 0.982726 248.305 0.635143C248.652 0.287561 249.152 0.11377 249.804 0.11377H261.035C263.077 0.11377 264.706 0.417904 265.944 1.0479C267.183 1.67789 268.073 2.63374 268.595 3.91545C269.116 5.19716 269.377 6.91335 269.377 9.0423V46.0381C269.377 48.1671 269.094 49.905 268.53 51.2084C267.965 52.5336 267.074 53.5111 265.858 54.1846C264.641 54.858 263.055 55.1839 261.122 55.1839H249.804C249.152 55.1839 248.652 54.9884 248.305 54.6191V54.6408ZM263.142 49.6226C263.815 48.9274 264.141 47.8846 264.141 46.4943V8.52092C264.141 7.17404 263.815 6.19646 263.164 5.58819C262.512 4.9582 261.491 4.65407 260.122 4.65407H254.018C253.67 4.65407 253.41 4.76269 253.236 4.9582C253.062 5.15372 252.975 5.43613 252.975 5.78371V49.4705C252.975 49.7746 253.084 50.0353 253.279 50.296C253.475 50.535 253.736 50.6653 254.018 50.6653H260.188C261.469 50.6653 262.447 50.3177 263.12 49.6226H263.142Z" fill="white"/>
<path d="M279.218 54.8148C279 54.5759 278.892 54.2283 278.892 53.7721V5.84913C278.892 5.50155 278.783 5.21914 278.566 5.0019C278.349 4.78466 278.088 4.67604 277.784 4.67604H272.266C271.81 4.67604 271.462 4.5457 271.18 4.30673C270.897 4.06777 270.767 3.72019 270.767 3.26398V1.5478C270.767 1.09159 270.897 0.744012 271.18 0.505049C271.441 0.266086 271.81 0.135742 272.266 0.135742H290.492C290.84 0.135742 291.144 0.266086 291.427 0.505049C291.709 0.744012 291.839 1.09159 291.839 1.5478V3.26398C291.839 3.65502 291.709 4.0026 291.427 4.26328C291.144 4.5457 290.84 4.67604 290.492 4.67604H285.127C284.779 4.67604 284.497 4.78466 284.301 5.0019C284.106 5.21914 283.997 5.50155 283.997 5.84913V53.7721C283.997 54.2283 283.867 54.5759 283.628 54.8148C283.389 55.0755 282.998 55.1841 282.52 55.1841H280.217C279.761 55.1841 279.435 55.0538 279.218 54.8148Z" fill="white"/>
<path d="M94.065 99.0443C93.8695 98.8271 93.7826 98.5447 93.7826 98.1971V96.7633C93.7826 96.4157 93.8695 96.1333 94.065 95.9378C94.2605 95.7423 94.5429 95.6554 94.8905 95.6554H102.972C103.754 95.6554 104.297 95.4816 104.623 95.134C104.949 94.7864 105.122 94.2216 105.122 93.4178V88.0086C105.122 87.5958 105.036 87.2265 104.883 86.9441C104.71 86.64 104.449 86.401 104.101 86.1838L103.841 86.0534L96.346 83.0121C96.346 83.0121 96.1939 82.9035 96.0853 82.8817C95.0208 82.3386 94.2388 81.7521 93.7826 81.1004C93.3264 80.4487 93.0874 79.558 93.0874 78.4718V71.3246C93.0874 70.2167 93.2829 69.2826 93.6522 68.5222C94.0215 67.7619 94.5863 67.1971 95.3467 66.8495C96.107 66.5019 97.0412 66.3281 98.1273 66.3281H106.752C107.078 66.3281 107.36 66.4367 107.577 66.6323C107.794 66.8495 107.903 67.1319 107.903 67.4795V68.9133C107.903 69.2609 107.794 69.5433 107.577 69.7171C107.36 69.8908 107.078 69.9777 106.752 69.9777H99.2135C98.4749 69.9777 97.9318 70.1733 97.5843 70.5643C97.2367 70.9553 97.0629 71.4984 97.0629 72.2153V77.4942C97.0629 78.0373 97.1715 78.4718 97.4105 78.8194C97.6494 79.167 98.0187 79.4711 98.5184 79.7318L105.926 82.5993C106.991 83.1424 107.794 83.7724 108.316 84.4893C108.837 85.2062 109.098 86.1403 109.098 87.2265V94.5909C109.098 95.6988 108.902 96.6113 108.49 97.3281C108.077 98.0668 107.49 98.5881 106.73 98.8923C105.948 99.1964 104.97 99.3702 103.776 99.3702H94.8905C94.5429 99.3702 94.2605 99.2616 94.065 99.0661V99.0443Z" fill="white"/>
<path d="M114.203 98.7622C113.377 98.3494 112.769 97.7629 112.356 96.9591C111.943 96.1553 111.726 95.156 111.726 93.9612V71.8028C111.726 70.5863 111.943 69.5435 112.356 68.718C112.769 67.8925 113.377 67.2842 114.181 66.8932C114.985 66.5022 116.027 66.3066 117.309 66.3066H122.262C123.479 66.3066 124.5 66.5022 125.304 66.9149C126.107 67.3059 126.716 67.9142 127.128 68.718C127.541 69.5218 127.758 70.5428 127.758 71.8028V93.9612C127.758 95.0908 127.541 96.0684 127.107 96.9156C126.672 97.7411 126.064 98.3711 125.26 98.7622C124.456 99.1532 123.479 99.3704 122.306 99.3704H117.179C116.027 99.3704 115.028 99.1749 114.203 98.7622ZM123.196 95.0691C123.587 94.6563 123.783 94.0046 123.783 93.1574V72.5631C123.783 71.6724 123.587 70.999 123.218 70.5428C122.849 70.0866 122.262 69.8694 121.502 69.8694H118.113C117.244 69.8694 116.636 70.0866 116.288 70.5428C115.941 70.999 115.745 71.6507 115.745 72.5631V93.1574C115.745 94.0481 115.962 94.6998 116.375 95.0908C116.788 95.4819 117.374 95.6991 118.113 95.6991H121.676C122.306 95.6991 122.805 95.4818 123.196 95.0691Z" fill="white"/>
<path d="M132.777 98.7402C131.908 98.3274 131.235 97.6974 130.778 96.8937C130.322 96.0899 130.105 95.0471 130.105 93.7871V67.4795C130.105 67.1319 130.214 66.8495 130.409 66.6323C130.626 66.415 130.887 66.3281 131.213 66.3281H132.951C133.298 66.3281 133.581 66.4367 133.776 66.6323C133.972 66.8495 134.059 67.1319 134.059 67.4795V92.8965C134.059 93.8523 134.276 94.5475 134.689 95.0254C135.101 95.4816 135.71 95.7206 136.514 95.7206H139.772C140.598 95.7206 141.228 95.5033 141.619 95.0471C142.031 94.5909 142.227 93.8958 142.227 92.8965V67.4795C142.227 67.1319 142.314 66.8495 142.509 66.6323C142.705 66.415 142.966 66.3281 143.291 66.3281H144.986C145.377 66.3281 145.659 66.4367 145.855 66.6323C146.05 66.8495 146.137 67.1319 146.137 67.4795V93.7002C146.137 94.982 145.92 96.0464 145.464 96.8937C145.008 97.7409 144.378 98.3709 143.552 98.7619C142.727 99.1529 141.706 99.3702 140.511 99.3702H135.818C134.624 99.3702 133.603 99.1529 132.712 98.7402H132.777Z" fill="white"/>
<path d="M149.787 99.0443C149.57 98.8271 149.461 98.5447 149.461 98.1537V67.5229C149.461 67.1319 149.57 66.8278 149.787 66.6323C150.004 66.415 150.33 66.3281 150.743 66.3281H152.85C153.176 66.3281 153.436 66.3933 153.654 66.5454C153.871 66.6974 154.045 66.9147 154.24 67.2188L161.083 85.7493C161.192 86.01 161.366 86.1403 161.605 86.0969C161.844 86.0534 161.93 85.8796 161.93 85.5538V67.5229C161.93 67.1319 162.039 66.8278 162.256 66.6323C162.474 66.415 162.778 66.3281 163.125 66.3281H165.124C165.58 66.3281 165.884 66.4367 166.08 66.6323C166.275 66.8495 166.362 67.1319 166.362 67.5229V98.1537C166.362 98.5447 166.275 98.8488 166.08 99.0443C165.884 99.2616 165.58 99.3485 165.167 99.3485H163.429C163.038 99.3485 162.734 99.2833 162.517 99.1312C162.3 98.9792 162.126 98.7402 161.996 98.4143L154.762 78.9932C154.696 78.8194 154.609 78.7108 154.479 78.6673C154.349 78.6239 154.218 78.6673 154.088 78.7542C153.958 78.8628 153.893 78.9932 153.893 79.1887V98.1754C153.893 98.5664 153.784 98.8705 153.588 99.0661C153.393 99.2616 153.067 99.3702 152.654 99.3702H150.786C150.373 99.3702 150.047 99.2616 149.83 99.0661L149.787 99.0443Z" fill="white"/>
<path d="M169.707 98.9792C169.447 98.7185 169.338 98.3709 169.338 97.9364V67.7402C169.338 67.284 169.468 66.9364 169.707 66.6974C169.968 66.4367 170.294 66.3281 170.706 66.3281H179.852C181.199 66.3281 182.264 66.5454 183.046 66.9798C183.828 67.4143 184.414 68.066 184.784 68.9133C185.153 69.7822 185.348 70.8684 185.348 72.1719V93.3744C185.348 94.7213 185.153 95.8292 184.784 96.7199C184.414 97.6106 183.806 98.284 183.002 98.7185C182.177 99.1529 181.134 99.3702 179.852 99.3702H170.706C170.294 99.3702 169.946 99.2398 169.707 99.0009V98.9792ZM180.83 95.0254C181.199 94.6126 181.395 94.0044 181.395 93.2006V72.3891C181.395 71.5853 181.199 70.977 180.808 70.5643C180.417 70.1515 179.809 69.9343 178.983 69.9343H174.117C173.9 69.9343 173.748 70.0212 173.596 70.1733C173.465 70.347 173.4 70.5208 173.4 70.7381V94.8951C173.4 95.134 173.465 95.3295 173.596 95.4599C173.726 95.5902 173.9 95.6554 174.117 95.6554H179.027C179.852 95.6554 180.461 95.4382 180.83 95.0254Z" fill="white"/>
<path d="M187.999 98.9792C187.738 98.7185 187.63 98.3709 187.63 97.9364V67.7402C187.63 67.284 187.76 66.9364 187.999 66.6974C188.238 66.4585 188.586 66.3281 188.998 66.3281H198.144C199.491 66.3281 200.556 66.5454 201.338 66.9798C202.12 67.4143 202.706 68.066 203.076 68.9133C203.445 69.7822 203.64 70.8684 203.64 72.1719V93.3744C203.64 94.7213 203.445 95.8292 203.076 96.7199C202.706 97.6106 202.098 98.284 201.294 98.7185C200.469 99.1529 199.426 99.3702 198.144 99.3702H188.998C188.586 99.3702 188.238 99.2398 187.999 99.0009V98.9792ZM199.122 95.0254C199.491 94.6126 199.687 94.0044 199.687 93.2006V72.3891C199.687 71.5853 199.491 70.977 199.1 70.5643C198.709 70.1515 198.101 69.9343 197.275 69.9343H192.409C192.192 69.9343 192.04 70.0212 191.888 70.1733C191.757 70.347 191.692 70.5208 191.692 70.7381V94.8951C191.692 95.134 191.757 95.3295 191.888 95.4599C192.018 95.5902 192.192 95.6554 192.409 95.6554H197.319C198.144 95.6554 198.753 95.4382 199.122 95.0254Z" fill="white"/>
<path d="M206.356 98.9792C206.095 98.7185 205.986 98.3709 205.986 97.9364V67.7402C205.986 67.284 206.117 66.9364 206.356 66.6974C206.595 66.4585 206.942 66.3281 207.355 66.3281H219.042C219.412 66.3281 219.672 66.4367 219.89 66.6323C220.107 66.8278 220.194 67.1319 220.194 67.4795V68.9133C220.194 69.2391 220.085 69.4998 219.89 69.6953C219.694 69.8908 219.39 69.9777 219.042 69.9777H210.787C210.57 69.9777 210.396 70.0429 210.244 70.195C210.092 70.347 210.027 70.5208 210.027 70.7381V79.6666C210.027 79.9056 210.092 80.1011 210.244 80.2314C210.396 80.3618 210.57 80.4269 210.787 80.4269H217C217.37 80.4269 217.63 80.5138 217.826 80.7093C218.021 80.9049 218.108 81.1873 218.108 81.5349V83.0121C218.108 83.3597 218.021 83.6421 217.826 83.8593C217.63 84.0766 217.348 84.1635 217 84.1635H210.787C210.57 84.1635 210.396 84.2286 210.244 84.359C210.092 84.4893 210.027 84.6631 210.027 84.8803V94.9168C210.027 95.134 210.092 95.2861 210.244 95.4382C210.396 95.5685 210.57 95.6337 210.787 95.6337H219.042C219.412 95.6337 219.672 95.7206 219.89 95.9161C220.107 96.1116 220.194 96.394 220.194 96.7416V98.1754C220.194 98.5447 220.085 98.8054 219.89 99.0226C219.672 99.2398 219.39 99.3267 219.042 99.3267H207.355C206.942 99.3267 206.595 99.1964 206.356 98.9574V98.9792Z" fill="white"/>
<path d="M224.365 99.0443C224.169 98.8271 224.082 98.5447 224.082 98.1971V96.7633C224.082 96.4157 224.169 96.1333 224.365 95.9378C224.56 95.7423 224.843 95.6554 225.19 95.6554H233.272C234.054 95.6554 234.597 95.4816 234.923 95.134C235.248 94.7864 235.422 94.2216 235.422 93.4178V88.0086C235.422 87.5958 235.335 87.2265 235.183 86.9441C235.009 86.64 234.749 86.401 234.401 86.1838L234.141 86.0534L226.646 83.0121C226.646 83.0121 226.494 82.9035 226.385 82.8817C225.321 82.3386 224.539 81.7521 224.082 81.1004C223.626 80.4487 223.387 79.558 223.387 78.4718V71.3246C223.387 70.2167 223.561 69.2826 223.952 68.5222C224.321 67.7402 224.886 67.1971 225.646 66.8495C226.407 66.5019 227.341 66.3281 228.427 66.3281H237.052C237.377 66.3281 237.66 66.4367 237.877 66.6323C238.094 66.8278 238.203 67.1319 238.203 67.4795V68.9133C238.203 69.2609 238.094 69.5433 237.877 69.7171C237.66 69.8908 237.377 69.9777 237.052 69.9777H229.513C228.775 69.9777 228.232 70.1733 227.884 70.5643C227.536 70.9553 227.363 71.4984 227.363 72.2153V77.4942C227.363 78.0373 227.471 78.4718 227.71 78.8194C227.949 79.167 228.319 79.4711 228.818 79.7318L236.226 82.5993C237.29 83.1424 238.094 83.7724 238.616 84.4893C239.137 85.2279 239.398 86.1403 239.398 87.2265V94.5909C239.398 95.6988 239.202 96.6113 238.789 97.3281C238.377 98.045 237.79 98.5881 237.03 98.8923C236.248 99.1964 235.27 99.3702 234.075 99.3702H225.19C224.821 99.3702 224.56 99.2616 224.365 99.0661V99.0443Z" fill="white"/>
<path d="M242.722 99.0661C242.504 98.8705 242.417 98.5881 242.417 98.1971V67.4795C242.417 67.1319 242.526 66.8495 242.722 66.6323C242.917 66.415 243.2 66.3281 243.525 66.3281H245.35C245.676 66.3281 245.937 66.4367 246.154 66.6323C246.371 66.8495 246.458 67.1319 246.458 67.4795V98.1971C246.458 98.5664 246.349 98.8271 246.154 99.0443C245.958 99.2616 245.676 99.3485 245.35 99.3485H243.525C243.2 99.3485 242.939 99.2616 242.722 99.0661Z" fill="white"/>
<path d="M252.106 98.7622C251.281 98.3494 250.607 97.7629 250.151 96.9808C249.673 96.1987 249.434 95.1994 249.434 94.0046V71.8462C249.434 70.6514 249.673 69.6521 250.129 68.8049C250.585 67.9794 251.237 67.3494 252.063 66.9366C252.888 66.5239 253.909 66.3066 255.104 66.3066H263.511C263.859 66.3066 264.141 66.4153 264.358 66.6108C264.576 66.828 264.663 67.1104 264.663 67.458V68.8918C264.663 69.2176 264.554 69.4783 264.358 69.6738C264.141 69.8694 263.859 69.9563 263.511 69.9563H256.625C255.517 69.9563 254.713 70.1952 254.213 70.6731C253.714 71.1511 253.453 71.9114 253.453 72.9542V92.6795C253.453 93.6136 253.692 94.3305 254.17 94.8736C254.648 95.4167 255.343 95.6774 256.234 95.6774H260.709C260.883 95.6774 261.035 95.6122 261.187 95.4601C261.317 95.3081 261.382 95.1343 261.382 94.917V82.0999C261.382 81.7741 261.469 81.4917 261.665 81.2744C261.86 81.0572 262.143 80.9486 262.49 80.9486H264.315C264.706 80.9486 264.988 81.0572 265.184 81.2744C265.379 81.4917 265.466 81.7741 265.466 82.0999V97.9149C265.466 98.3711 265.336 98.7187 265.097 98.9577C264.836 99.2184 264.51 99.327 264.098 99.327H255.213C253.996 99.327 252.953 99.1315 252.128 98.7187L252.106 98.7622Z" fill="white"/>
<path d="M268.703 99.0443C268.486 98.8271 268.377 98.5447 268.377 98.1537V67.5229C268.377 67.1319 268.486 66.8278 268.703 66.6323C268.921 66.415 269.246 66.3281 269.659 66.3281H271.766C272.092 66.3281 272.353 66.3933 272.57 66.5454C272.787 66.6974 272.983 66.9147 273.157 67.2188L279.978 85.7493C280.087 86.01 280.26 86.1403 280.499 86.0969C280.717 86.0752 280.825 85.8796 280.825 85.5538V67.5229C280.825 67.1319 280.934 66.8278 281.151 66.6323C281.368 66.4367 281.672 66.3281 282.02 66.3281H284.04C284.497 66.3281 284.801 66.4367 284.996 66.6323C285.192 66.8278 285.279 67.1319 285.279 67.5229V98.1537C285.279 98.5447 285.192 98.8488 284.996 99.0443C284.801 99.2616 284.497 99.3485 284.084 99.3485H282.346C281.955 99.3485 281.651 99.2833 281.434 99.1312C281.216 98.9792 281.042 98.7402 280.912 98.4143L273.678 78.9932C273.613 78.8194 273.526 78.7108 273.396 78.6673C273.265 78.6239 273.135 78.6673 272.983 78.7542C272.831 78.8411 272.787 78.9932 272.787 79.1887V98.1754C272.787 98.5664 272.679 98.8705 272.483 99.0661C272.266 99.2833 271.962 99.3702 271.549 99.3702H269.681C269.268 99.3702 268.942 99.2616 268.725 99.0661L268.703 99.0443Z" fill="white"/>
<path d="M20.551 32.591V1.56926C20.551 0.178932 21.7458 0.0703125 23.2013 0.0703125C24.6568 0.0703125 25.8517 0.178932 25.8517 1.56926V32.591C25.8517 33.9813 20.5293 33.9813 20.5293 32.591H20.551Z" fill="white"/>
<path d="M88.6123 85.1629H64.6725C36.0839 85.1629 20.5513 62.7873 20.5513 43.6268V41.5847C20.5513 40.1944 25.8736 40.1944 25.8736 41.5847V43.6268C25.8736 66.0459 45.2731 80.1229 64.6725 80.1229H88.6123C90.0895 80.1229 89.9374 81.2526 89.9374 82.6429C89.9374 84.0332 90.0895 85.1629 88.6123 85.1629Z" fill="white"/>
<path d="M35.3887 17.8405V1.63445C35.3887 0.265846 36.54 0.157227 37.9738 0.157227C39.4076 0.157227 40.559 0.265846 40.559 1.63445V17.8622C40.559 19.2308 35.3887 19.2308 35.3887 17.8622V17.8405Z" fill="white"/>
<path d="M88.6337 71.303H65.3674C46.4459 71.303 35.4102 55.3359 35.4102 42.8012V28.42C35.4102 27.0514 40.5804 27.0514 40.5804 28.42V42.8012C40.5804 57.4214 54.0927 66.3717 65.3674 66.3717H88.6337C90.0675 66.3717 89.9154 67.4796 89.9154 68.8482C89.9154 70.2168 90.0675 71.3247 88.6337 71.3247V71.303Z" fill="white"/>
<path d="M6.06152 10.1068V1.6779C6.06152 0.265846 7.27806 0.157227 8.77701 0.157227C10.276 0.157227 11.4708 0.265846 11.4708 1.6779V10.1068C11.4708 11.5188 6.06152 11.5188 6.06152 10.1068Z" fill="white"/>
<path d="M88.5906 99.3486H64.2599C30.3489 99.3486 6.06152 73.7578 6.06152 44.083V19.9912C6.06152 18.5791 11.4708 18.5791 11.4708 19.9912V44.083C11.4708 72.4761 35.1064 94.2652 64.2599 94.2652H88.5906C90.0896 94.2652 89.9375 95.3949 89.9375 96.8069C89.9375 98.219 90.0896 99.3486 88.5906 99.3486Z" fill="white"/>
<path d="M0.977926 10.3238C1.32551 9.62861 1.82516 9.10724 2.4986 8.75966C3.17204 8.41207 4.01927 8.23828 5.01857 8.23828H12.4047C13.4257 8.23828 14.2947 8.41207 15.0116 8.75966C15.7285 9.10724 16.2281 9.62861 16.554 10.3021C16.8798 10.9755 17.0536 11.8662 17.0536 12.9524V15.7765C17.0536 16.7975 16.8798 17.6665 16.554 18.3399C16.2064 19.0133 15.7067 19.5347 15.0333 19.8823C14.3599 20.2299 13.4909 20.4037 12.4264 20.4037H5.0403C4.08444 20.4037 3.25894 20.2299 2.56377 19.8606C1.86861 19.4913 1.32551 18.9699 0.99965 18.2965C0.673791 17.623 0.5 16.7975 0.5 15.7982V12.822C0.5 11.8444 0.673791 10.9972 0.99965 10.3238H0.977926ZM4.08444 16.5585C4.43203 16.8844 4.97513 17.0582 5.71374 17.0582H11.7747C12.535 17.0582 13.0999 16.9061 13.4692 16.5803C13.8385 16.2544 14.034 15.7765 14.034 15.1248V13.6258C14.034 12.8872 13.8385 12.3875 13.4692 12.0834C13.0781 11.7793 12.5133 11.6272 11.7747 11.6272H5.71374C4.9534 11.6272 4.4103 11.801 4.08444 12.1486C3.73686 12.4962 3.58479 12.9958 3.58479 13.6258V15.2768C3.58479 15.7982 3.75859 16.2327 4.10617 16.5585H4.08444Z" fill="white"/>
<path d="M15.4242 33.1993C15.7718 32.5041 16.2714 31.9827 16.9449 31.6351C17.6183 31.2876 18.4656 31.1138 19.4649 31.1138H26.851C27.872 31.1138 28.741 31.2876 29.4579 31.6351C30.1747 31.9827 30.6744 32.5041 31.0003 33.1775C31.3261 33.851 31.4999 34.7417 31.4999 35.8279V38.652C31.4999 39.673 31.3261 40.5419 31.0003 41.2154C30.6527 41.8888 30.153 42.4102 29.4796 42.7578C28.8061 43.1054 27.9372 43.2792 26.8727 43.2792H19.4866C18.5307 43.2792 17.7052 43.1054 17.0101 42.7361C16.3149 42.3668 15.7718 41.8454 15.4459 41.1719C15.1201 40.4985 14.9463 39.673 14.9463 38.6737V35.6975C14.9463 34.7199 15.1201 33.8727 15.4459 33.1993H15.4242ZM18.5307 39.434C18.8783 39.7599 19.4214 39.9337 20.16 39.9337H26.221C26.9813 39.9337 27.5462 39.7816 27.9155 39.4557C28.2848 39.1299 28.4803 38.652 28.4803 38.0002V36.5013C28.4803 35.7627 28.2848 35.263 27.9155 34.9589C27.5244 34.6548 26.9596 34.5027 26.221 34.5027H20.16C19.3997 34.5027 18.8566 34.6765 18.5307 35.0241C18.1832 35.3717 18.0311 35.8713 18.0311 36.5013V38.1523C18.0311 38.6737 18.2049 39.1082 18.5525 39.434H18.5307Z" fill="white"/>
<path d="M30.2836 18.9703C30.6312 18.2751 31.1308 17.7537 31.8043 17.4061C32.4777 17.0586 33.3249 16.8848 34.3242 16.8848H41.7104C42.7314 16.8848 43.6003 17.0586 44.3172 17.4061C45.0341 17.7537 45.5338 18.2751 45.8596 18.9485C46.1855 19.622 46.3593 20.5127 46.3593 21.5989V24.423C46.3593 25.444 46.1855 26.3129 45.8596 26.9864C45.512 27.6598 45.0124 28.1812 44.339 28.5288C43.6655 28.8764 42.7966 29.0502 41.7321 29.0502H34.346C33.3901 29.0502 32.5646 28.8764 31.8694 28.5071C31.1743 28.1378 30.6312 27.6164 30.3053 26.9429C29.9795 26.2695 29.8057 25.444 29.8057 24.4447V21.4685C29.8057 20.4909 29.9795 19.6437 30.3053 18.9703H30.2836ZM33.3901 25.205C33.7377 25.5309 34.2808 25.7047 35.0194 25.7047H41.0804C41.8407 25.7047 42.4055 25.5526 42.7748 25.2267C43.1441 24.9009 43.3397 24.423 43.3397 23.7712V22.2723C43.3397 21.5337 43.1441 21.034 42.7748 20.7299C42.3838 20.4258 41.819 20.2737 41.0804 20.2737H35.0194C34.2591 20.2737 33.716 20.4475 33.3901 20.7951C33.0425 21.1427 32.8905 21.6423 32.8905 22.2723V23.9233C32.8905 24.4447 33.0642 24.8792 33.4118 25.205H33.3901Z" fill="white"/>
</svg>
